<?xml version="1.0" encoding="utf-8"?>
<!-- Generator: Adobe Illustrator 21.0.2, SVG Export Plug-In . SVG Version: 6.00 Build 0)  -->
<!DOCTYPE svg PUBLIC "-//W3C//DTD SVG 1.1//EN" "http://www.w3.org/Graphics/SVG/1.1/DTD/svg11.dtd">
<svg version="1.1" id="Layer_1" xmlns="http://www.w3.org/2000/svg" xmlns:xlink="http://www.w3.org/1999/xlink" x="0px" y="0px"
	 viewBox="0 0 170 29.2" style="enable-background:new 0 0 170 29.2;" xml:space="preserve">
<style type="text/css">
	.st0{fill:#CACACA;}
</style>
<g>
	<g>
		<g>
			<path class="st0" d="M40.6,4.4c-1.9,0-3.6,0.1-4.9,0.4v18.8c1,0.1,2.4,0.3,4.1,0.3c3.3,0,6-0.8,7.7-2.3c1.5-1.3,2.9-3.7,2.9-7.8
				c0-3.5-1.1-5.8-2.9-7.3C45.9,5.1,43.7,4.4,40.6,4.4z M40.7,20.9c-0.5,0-1,0-1.4-0.1V7.4c0.4-0.1,1-0.1,1.7-0.1
				c3.4,0,5.5,2.1,5.5,6.5C46.5,18.7,44.2,20.9,40.7,20.9z"/>
			<path class="st0" d="M58.6,9.5c-4,0-6.3,3.4-6.3,7.4c0,4.3,2.4,7,6.7,7c1.7,0,3.3-0.3,4.5-0.8l-0.5-2.5c-0.9,0.3-2,0.6-3.4,0.6
				c-2,0-3.7-0.9-3.8-3.3H64c0.1-0.4,0.1-0.9,0.1-1.5C64.1,11.9,61.9,9.5,58.6,9.5z M55.7,15.3c0.1-1.4,0.8-3.2,2.6-3.2
				c1.8,0,2.4,1.8,2.4,3.2H55.7z"/>
			<path class="st0" d="M74.3,9.8l-1.7,6.7c-0.3,1.2-0.5,2.3-0.8,3.5h-0.1c-0.2-1.2-0.5-2.3-0.8-3.5l-1.8-6.7h-3.9l4.6,13.8h3.5
				l4.7-13.8H74.3z"/>
			<path class="st0" d="M1.9,22.4c-0.7,0.9-1.2,1.6-1.6,2.4c-0.1,0.2-0.3,0.7-0.3,1v0.5c0,0.9,0.7,1.6,1.6,1.6h24.1
				c0.9,0,1.6-0.7,1.6-1.6V7.7C14,10.1,6,17.2,1.9,22.4z"/>
		</g>
		<g>
			<polygon class="st0" points="83.9,15.2 90.2,15.2 90.2,12.2 83.9,12.2 83.9,7.6 90.5,7.6 90.5,4.5 80.3,4.5 80.3,23.6 90.9,23.6 
				90.9,20.6 83.9,20.6 			"/>
			<path class="st0" d="M104.8,9.8h-3.9l-1.2,2.5c-0.3,0.7-0.7,1.5-1,2.2h-0.1c-0.3-0.7-0.7-1.4-1.1-2.2l-1.3-2.5h-4.1l4.1,6.8
				l-4.2,7H96l1.3-2.7c0.3-0.7,0.7-1.4,1-2.2h0.1c0.3,0.7,0.7,1.5,1,2.2l1.4,2.7h4.1l-4.2-7.1L104.8,9.8z"/>
			<path class="st0" d="M114.1,9.5c-1.8,0-3.2,0.8-4.1,2.2H110l-0.2-1.9h-3.2c0.1,1.3,0.1,2.7,0.1,4.5v14.8h3.7v-6.9h0.1
				c0.6,0.9,1.8,1.6,3.3,1.6c2.8,0,5.7-2.2,5.7-7.3C119.4,12.3,117.2,9.5,114.1,9.5z M112.8,21c-1.2,0-2.5-1-2.5-3v-2.6
				c0-1.7,1.1-3,2.5-3c1.8,0,2.8,1.8,2.8,4.2C115.7,19.2,114.7,21,112.8,21z"/>
			<path class="st0" d="M125.3,12.2h-0.1L125,9.8h-3.2c0,1.2,0.1,2.6,0.1,4.3v9.5h3.7v-7.1c0-2.4,1.3-3.5,2.9-3.5
				c0.4,0,0.7,0,0.9,0.1V9.6c-0.2,0-0.5-0.1-0.8-0.1C127.4,9.5,125.9,10.4,125.3,12.2z"/>
			<path class="st0" d="M137.2,9.5c-4,0-6.3,3.4-6.3,7.4c0,4.3,2.4,7,6.7,7c1.7,0,3.3-0.3,4.5-0.8l-0.5-2.5c-0.9,0.3-2,0.6-3.4,0.6
				c-2,0-3.7-0.9-3.8-3.3h8.3c0.1-0.4,0.1-0.9,0.1-1.5C142.7,11.9,140.5,9.5,137.2,9.5z M134.3,15.3c0.1-1.4,0.8-3.2,2.6-3.2
				c1.8,0,2.4,1.8,2.4,3.2H134.3z"/>
			<path class="st0" d="M150.3,15.3c-1.6-0.7-2.1-1.1-2.1-1.8c0-0.7,0.6-1.3,1.7-1.3c1,0,2,0.4,2.6,0.7l0.7-2.6
				c-0.8-0.4-2-0.8-3.4-0.8c-3.1,0-5.1,1.9-5.1,4.4c0,1.5,0.9,3,3.5,4c1.5,0.6,2,1.1,2,1.9c0,0.8-0.6,1.4-1.9,1.4
				c-1.1,0-2.5-0.5-3.2-0.9l-0.7,2.7c0.9,0.5,2.4,0.9,3.9,0.9c3.5,0,5.4-1.7,5.4-4.4C153.7,17.6,152.6,16.3,150.3,15.3z"/>
			<path class="st0" d="M161.3,15.3c-1.6-0.7-2.1-1.1-2.1-1.8c0-0.7,0.6-1.3,1.7-1.3c1,0,2,0.4,2.6,0.7l0.7-2.6
				c-0.8-0.4-2-0.8-3.4-0.8c-3.1,0-5.1,1.9-5.1,4.4c0,1.5,0.9,3,3.5,4c1.5,0.6,2,1.1,2,1.9c0,0.8-0.6,1.4-1.9,1.4
				c-1.1,0-2.5-0.5-3.2-0.9l-0.7,2.7c0.9,0.5,2.4,0.9,3.9,0.9c3.5,0,5.4-1.7,5.4-4.4C164.7,17.6,163.7,16.3,161.3,15.3z"/>
			<path class="st0" d="M25.7,0.6H1.6C0.7,0.6,0,1.3,0,2.2v14.4c4.8-5,13.3-10.5,26.2-12c0.3,0,1-0.2,1-1.2V2.2
				C27.2,1.3,26.5,0.6,25.7,0.6z"/>
			<path class="st0" d="M168.3,9L168.3,9c0.4-0.1,0.6-0.3,0.6-0.7c0-0.2-0.1-0.4-0.2-0.5c-0.2-0.1-0.4-0.2-0.7-0.2h-0.8v2.5h0.5v-1
				h0.2c0.2,0,0.3,0.1,0.4,0.4l0.2,0.6h0.6l-0.3-0.7C168.6,9.2,168.4,9,168.3,9z M167.9,8.7h-0.3V8h0.3c0.3,0,0.5,0.1,0.5,0.4
				c0,0.1,0,0.2-0.1,0.3C168.2,8.7,168.1,8.7,167.9,8.7z"/>
			<path class="st0" d="M169.4,7.4c-0.4-0.4-0.9-0.6-1.5-0.6c-0.6,0-1.1,0.2-1.5,0.6c-0.4,0.4-0.6,0.9-0.6,1.4
				c0,0.6,0.2,1.1,0.6,1.4c0.4,0.4,0.9,0.6,1.5,0.6c0.6,0,1.1-0.2,1.5-0.6c0.4-0.4,0.6-0.9,0.6-1.4C170,8.3,169.8,7.8,169.4,7.4z
				 M169.2,10.1c-0.3,0.3-0.7,0.5-1.2,0.5c-0.5,0-0.9-0.2-1.2-0.5c-0.3-0.3-0.5-0.7-0.5-1.2c0-0.5,0.2-0.9,0.5-1.2
				c0.3-0.3,0.7-0.5,1.2-0.5c0.5,0,0.9,0.2,1.2,0.5c0.3,0.3,0.5,0.7,0.5,1.2C169.7,9.4,169.5,9.8,169.2,10.1z"/>
		</g>
	</g>
	<g>
		<path class="st0" d="M128.3,0.1c0.3-0.1,0.7-0.1,1.2-0.1c0.6,0,1,0.1,1.3,0.4c0.3,0.2,0.5,0.6,0.5,1c0,1.2-1,1.5-1.7,1.5
			c-0.1,0-0.2,0-0.3,0v1.6h-1V0.1z M129.3,2.1c0.1,0,0.1,0,0.2,0c0.5,0,0.7-0.3,0.7-0.7c0-0.4-0.2-0.6-0.7-0.6c-0.1,0-0.2,0-0.3,0
			V2.1z"/>
		<path class="st0" d="M135.5,2.2c0,1.6-0.8,2.4-1.9,2.4c-1.2,0-1.8-1.1-1.8-2.3c0-1.3,0.7-2.3,1.9-2.3C135,0,135.5,1.2,135.5,2.2z
			 M132.9,2.3c0,0.9,0.3,1.5,0.8,1.5c0.5,0,0.8-0.6,0.8-1.5c0-0.8-0.3-1.4-0.8-1.4C133.1,0.8,132.9,1.5,132.9,2.3z"/>
		<path class="st0" d="M141.1,0.1l-1,4.5H139l-0.3-1.6c-0.1-0.4-0.1-0.9-0.2-1.4h0c-0.1,0.5-0.2,1-0.2,1.4l-0.3,1.6h-1.1l-0.9-4.5
			h1.1l0.3,1.7c0.1,0.5,0.1,1.1,0.2,1.6h0c0.1-0.5,0.2-1,0.3-1.6l0.3-1.7h1l0.3,1.8c0.1,0.5,0.2,1,0.2,1.5h0c0.1-0.5,0.1-1,0.2-1.6
			l0.3-1.7H141.1z"/>
		<path class="st0" d="M144.3,4.5h-2.5V0.1h2.5v0.9h-1.4v0.9h1.4v0.8h-1.4v1h1.5V4.5z"/>
		<path class="st0" d="M147.3,2.5c0.3,0.1,0.5,0.4,0.6,0.8c0.1,0.5,0.2,1.1,0.3,1.3h-1.1c-0.1-0.1-0.2-0.5-0.3-1.1
			c-0.1-0.5-0.3-0.7-0.6-0.7h-0.2v1.7h-1V0.1c0.3-0.1,0.7-0.1,1.2-0.1c0.6,0,1.8,0.1,1.8,1.3C148.1,1.9,147.7,2.3,147.3,2.5
			L147.3,2.5z M146.4,2c0.4,0,0.7-0.3,0.7-0.6c0-0.5-0.4-0.6-0.6-0.6c-0.2,0-0.3,0-0.3,0V2H146.4z"/>
		<path class="st0" d="M151.4,4.5h-2.5V0.1h2.5v0.9h-1.4v0.9h1.4v0.8h-1.4v1h1.5V4.5z"/>
		<path class="st0" d="M152.2,0.1c0.3-0.1,0.7-0.1,1.2-0.1c0.7,0,1.2,0.1,1.6,0.4c0.4,0.4,0.7,0.9,0.7,1.7c0,1-0.3,1.5-0.7,1.9
			c-0.4,0.3-1,0.5-1.8,0.5c-0.4,0-0.8,0-1-0.1V0.1z M153.2,3.8c0.1,0,0.2,0,0.2,0c0.7,0,1.1-0.4,1.1-1.5c0-0.9-0.4-1.4-1.1-1.4
			c-0.1,0-0.2,0-0.3,0V3.8z"/>
		<path class="st0" d="M160,2.2c0.5,0.1,0.8,0.6,0.8,1.1c0,0.4-0.2,0.7-0.4,0.9c-0.3,0.3-0.8,0.4-1.7,0.4c-0.4,0-0.8,0-1-0.1V0.1
			c0.3-0.1,0.7-0.1,1.2-0.1c0.5,0,0.9,0.1,1.3,0.3c0.3,0.2,0.5,0.5,0.5,0.9C160.7,1.6,160.5,1.9,160,2.2L160,2.2z M159,1.9
			c0.4,0,0.7-0.2,0.7-0.6c0-0.4-0.2-0.5-0.6-0.5c-0.2,0-0.3,0-0.3,0v1H159z M158.8,3.8c0.1,0,0.2,0,0.3,0c0.4,0,0.7-0.2,0.7-0.6
			c0-0.5-0.4-0.6-0.8-0.6h-0.3V3.8z"/>
		<path class="st0" d="M164.8,0.1l-1.3,2.7v1.8h-1V2.8l-1.2-2.7h1.1l0.4,1c0.1,0.3,0.2,0.6,0.3,0.9h0c0.1-0.3,0.2-0.6,0.3-0.9l0.3-1
			H164.8z"/>
	</g>
</g>
</svg>
